<?xml version="1.0" encoding="UTF-8" standalone="no"?>
<svg
   xmlns:dc="http://purl.org/dc/elements/1.1/"
   xmlns:cc="http://creativecommons.org/ns#"
   xmlns:rdf="http://www.w3.org/1999/02/22-rdf-syntax-ns#"
   xmlns:svg="http://www.w3.org/2000/svg"
   xmlns="http://www.w3.org/2000/svg"
   version="1.1"
   width="24"
   height="24"
   viewBox="0 0 24 24">
  <g
     id="g4525">
    <g
       id="g4521">
      <path
         d="M 17.75,4.09 15.22,6.03 16.13,9.09 13.5,7.28 10.87,9.09 11.78,6.03 9.25,4.09 12.44,4 13.5,1 l 1.06,3 3.19,0.09" />
      <path
         d="M 12.334746,14.906416 9.1085546,17.380254 10.268964,21.282288 6.9152545,18.974222 3.5615456,21.282288 4.7219543,17.380254 1.4957629,14.906416 5.5635695,14.79165 6.9152545,10.966126 8.2669394,14.79165 12.334746,14.906416"
         id="path2-3"
         style="stroke-width:1.2751745" />
      <path
         d="M 22.198964,15.400465 20.229,16.91103 l 0.708564,2.382644 -2.047828,-1.409342 -2.047828,1.409342 0.708564,-2.382644 -1.969964,-1.510565 2.483868,-0.07008 0.82536,-2.335926 0.825361,2.335926 2.483867,0.07008"
         id="path2-3-4"
         style="stroke-width:0.77864188" />
      <path
         d="M 14.361328 8.6464844 L 17.546875 14.992188 L 17.71875 14.988281 L 18.111328 13.876953 L 16.083984 9.8300781 L 14.361328 8.6464844 z M 12.429688 8.7890625 L 10.125 10.375 L 8.234375 13.242188 L 8.6484375 14.416016 L 8.6855469 14.417969 L 12.429688 8.7890625 z M 15.460938 16.0625 L 11.705078 16.21875 L 10.326172 17.275391 L 16.699219 17.011719 L 15.460938 16.0625 z " />
    </g>
  </g>
</svg>
